<svg xmlns="http://www.w3.org/2000/svg" height="24" viewBox="0 -960 960 960" width="24"><path d="M480-107q-155.417 0-264.208-108.792Q107-324.583 107-480q0-155.417 108.792-264.208Q324.583-853 480-853q9 0 20 .5t27 2.5q-32 30-51 75.5T457-683q0 93 67.5 159.5T686-457q47.891 0 87.946-17.5Q814-492 849-529q2 8 3 23.5t1 25.5q0 155.417-108.792 264.208Q635.417-107 480-107Zm0-106q73 0 136.5-37.5T715-352q-6 0-14 .5t-14 .5q-139.622 0-237.811-97.02Q351-545.041 351-683q0-11 .5-19t1.5-13q-65 35-102.5 98T213-480q0 110.614 78.193 188.807Q369.386-213 480-213Zm-16-251Z"/></svg>